<?xml version="1.0" encoding="UTF-8"?>
<svg xmlns="http://www.w3.org/2000/svg" version="1.1" viewBox="0 0 470.4 95.1">
  <defs>
    <style>
      .cls-1 {
        fill: #19469d;
      }

      .cls-2 {
        fill: #fff;
      }

      .cls-3 {
        display: none;
      }
    </style>
  </defs>
  <!-- Generator: Adobe Illustrator 28.6.0, SVG Export Plug-In . SVG Version: 1.2.0 Build 709)  -->
  <g>
    <g id="Layer_1">
      <g class="cls-3">
        <path class="cls-1" d="M19.2,3362.8v-6.9h-2.5v-1.4h6.6v1.4h-2.4v6.9h-1.7Z"/>
        <path class="cls-1" d="M24.3,3362.8v-8.3h2.5l1.5,5.6,1.5-5.6h2.5v8.3h-1.6v-6.5l-1.6,6.5h-1.6l-1.6-6.5v6.5h-1.6Z"/>
      </g>
      <g class="cls-3">
        <path class="cls-1" d="M19,3362.8v-6.9h-2.4v-1.4h6.6v1.4h-2.4v6.9h-1.7Z"/>
        <path class="cls-1" d="M24.2,3362.8v-8.2h2.5l1.5,5.6,1.5-5.6h2.5v8.2h-1.5v-6.5l-1.6,6.5h-1.6l-1.6-6.5v6.5h-1.5Z"/>
      </g>
      <g>
        <g>
          <g>
            <path class="cls-2" d="M8,49.1c.3,2.4,1.2,4.3,2.8,5.6,1.6,1.3,3.5,2,5.8,2s3.7-.4,5-1.2c1.4-.8,2.5-1.9,3.6-3.1l5.7,4.3c-1.9,2.3-3.9,3.9-6.3,4.9-2.3,1-4.7,1.5-7.2,1.5s-4.7-.4-6.8-1.2c-2.1-.8-4-1.9-5.5-3.4-1.6-1.5-2.8-3.2-3.7-5.3-.9-2.1-1.4-4.4-1.4-6.9s.5-4.8,1.4-6.9c.9-2.1,2.1-3.8,3.7-5.3s3.4-2.6,5.5-3.4c2.1-.8,4.4-1.2,6.8-1.2s4.2.4,6.1,1.2c1.8.8,3.4,1.9,4.7,3.4,1.3,1.5,2.3,3.3,3.1,5.4s1.1,4.6,1.1,7.4v2.2H8ZM24.3,43.2c0-2.4-.8-4.3-2.2-5.6-1.4-1.3-3.4-2-5.9-2s-4.3.7-5.7,2.1c-1.4,1.4-2.3,3.2-2.6,5.5h16.4Z"/>
            <path class="cls-2" d="M71,30.4h7.6v4.8h.1c1.2-2,2.7-3.4,4.7-4.3,1.9-.9,4.1-1.3,6.3-1.3s4.6.4,6.6,1.3c1.9.9,3.6,2.1,5,3.6,1.4,1.5,2.4,3.3,3.1,5.3.7,2,1.1,4.2,1.1,6.6s-.4,4.5-1.1,6.6c-.8,2-1.8,3.8-3.2,5.3s-3,2.7-4.9,3.6-4,1.3-6.3,1.3-2.8-.2-4-.5c-1.2-.3-2.2-.7-3.1-1.2-.9-.5-1.6-1-2.3-1.6-.6-.6-1.1-1.1-1.5-1.6h-.2v19.2h-8V30.4h0ZM97.5,46.3c0-1.2-.2-2.4-.6-3.6-.4-1.2-1-2.2-1.9-3.1-.8-.9-1.8-1.6-3-2.1s-2.5-.8-3.9-.8-2.8.3-3.9.8-2.1,1.2-3,2.1c-.8.9-1.4,1.9-1.9,3.1-.4,1.2-.6,2.3-.6,3.6s.2,2.4.6,3.6c.4,1.2,1,2.2,1.9,3.1.8.9,1.8,1.6,3,2.1,1.2.5,2.5.8,3.9.8s2.8-.3,3.9-.8c1.2-.5,2.1-1.2,3-2.1.8-.9,1.4-1.9,1.9-3.1.4-1.2.6-2.3.6-3.6Z"/>
            <polygon class="cls-2" points="54.8 46.3 67 62.3 57.3 62.3 50 52.7 42.7 62.3 33 62.3 63.1 22.7 72.8 22.7 54.8 46.3"/>
            <polygon class="cls-2" points="42.7 30.4 33 30.4 42.8 43.3 47.6 36.9 42.7 30.4"/>
          </g>
          <g>
            <path class="cls-2" d="M105.1,23.9c-.2-.4-.5-.7-.9-.9s-.8-.3-1.2-.3-.9.1-1.2.3c-.4.2-.7.5-.9.9-.2.4-.3.8-.3,1.2s.1.8.3,1.2.5.7.9.9.8.3,1.3.3.9-.1,1.3-.3c.4-.2.7-.5.9-.9.2-.4.3-.8.3-1.2s-.1-.9-.3-1.2h0ZM105,25.2c0,.4,0,.7-.3,1s-.4.6-.7.7c-.3.2-.6.3-1,.3s-.7,0-1-.3c-.3-.2-.6-.4-.7-.7s-.3-.6-.3-1,0-.7.3-1c.2-.3.4-.6.7-.7.3-.2.6-.3,1-.3s.7,0,1,.3c.3.2.6.4.7.7.2.3.3.6.3,1h0Z"/>
            <path class="cls-2" d="M103.9,25.1c0-.1.1-.3.1-.4s0-.4-.3-.6c-.2-.1-.4-.2-.7-.2h-1v2.6h.6v-.9h.4l.5.9h.6s-.6-1.1-.6-1.1c.2,0,.3-.2.4-.3h0ZM103.4,25c0,0-.2.1-.3.1h-.4v-.8h.4c.1,0,.3,0,.3.1s.1.2.1.3,0,.2-.1.3h0Z"/>
          </g>
        </g>
        <path class="cls-2" d="M136.4,95.1c-.2,0-.4-.2-.4-.4V.4c0-.2.2-.4.4-.4s.4.2.4.4v94.2c0,.2-.2.4-.4.4Z"/>
      </g>
      <g>
        <path class="cls-2" d="M165.2,58.3l1.7-3c.4-.7,1.2-.7,1.6-.3.2.1,4.1,3,7.2,3s4.4-1.6,4.4-3.7-2.1-4.1-6.1-5.8c-4.5-1.8-9-4.7-9-10.4s3.2-9.2,10.8-9.2,8.6,2.5,9.6,3.2c.5.3.6,1.1.3,1.6l-1.8,2.7c-.4.6-1.1,1-1.7.6-.4-.2-4-2.6-6.7-2.6s-4.2,1.8-4.2,3.4c0,2.3,1.8,3.8,5.7,5.4,4.7,1.9,10,4.7,10,10.8s-4.3,9.5-11,9.5-9.6-2.8-10.6-3.7c-.4-.4-.7-.7-.2-1.4Z"/>
        <path class="cls-2" d="M213.8,28.9c9.6,0,17.3,7.7,17.3,17.3s-7.7,17.2-17.3,17.2-17.2-7.6-17.2-17.2,7.6-17.3,17.2-17.3ZM213.8,57.2c6,0,11-4.9,11-11s-5-11.1-11-11.1-11,5-11,11.1,4.9,11,11,11Z"/>
        <path class="cls-2" d="M243.1,30.3c0-.5.4-.9.9-.9h4.4c.5,0,.9.4.9.9v26.9h12.2c.5,0,.9.4.9.9v3.9c0,.5-.4.9-.9.9h-17.6c-.5,0-.9-.4-.9-.9v-31.8Z"/>
        <path class="cls-2" d="M272.2,30.3c0-.5.4-.9.9-.9h4.6c.5,0,.9.4.9.9v19.6c0,4.1,2.8,7.3,7,7.3s7-3.2,7-7.2v-19.7c0-.5.4-.9.9-.9h4.6c.5,0,.9.4.9.9v20c0,7.3-5.8,13.2-13.4,13.2s-13.3-5.9-13.3-13.2v-20Z"/>
        <path class="cls-2" d="M317.4,35.1h-7.3c-.5,0-.9-.4-.9-.9v-3.9c0-.5.4-.9.9-.9h21c.5,0,.9.4.9.9v3.9c0,.5-.4.9-.9.9h-7.3v26.9c0,.5-.4.9-.9.9h-4.5c-.5,0-.9-.4-.9-.9v-26.9Z"/>
        <path class="cls-2" d="M342.7,30.3c0-.5.4-.9.9-.9h4.5c.5,0,.9.4.9.9v31.8c0,.5-.4.9-.9.9h-4.5c-.5,0-.9-.4-.9-.9v-31.8Z"/>
        <path class="cls-2" d="M378.3,28.9c9.6,0,17.3,7.7,17.3,17.3s-7.7,17.2-17.3,17.2-17.2-7.6-17.2-17.2,7.6-17.3,17.2-17.3ZM378.3,57.2c6,0,11-4.9,11-11s-5-11.1-11-11.1-11,5-11,11.1,4.9,11,11,11Z"/>
        <path class="cls-2" d="M407.7,29.8c0-.5.4-.9.9-.9h1.2l20,21.2h0v-19.8c0-.5.4-.9.9-.9h4.4c.5,0,.9.4.9.9v32.3c0,.5-.4.9-.9.9h-1.2l-20.1-22h0v20.6c0,.5-.4.9-.9.9h-4.4c-.5,0-.9-.4-.9-.9V29.8Z"/>
        <path class="cls-2" d="M448.6,58.3l1.7-3c.4-.7,1.2-.7,1.6-.3.2.1,4.1,3,7.2,3s4.4-1.6,4.4-3.7-2.1-4.1-6.1-5.8c-4.5-1.8-9-4.7-9-10.4s3.2-9.2,10.8-9.2,8.6,2.5,9.6,3.2c.5.3.6,1.1.3,1.6l-1.8,2.7c-.4.6-1.1,1-1.7.6-.4-.2-4-2.6-6.7-2.6s-4.2,1.8-4.2,3.4c0,2.3,1.8,3.8,5.7,5.4,4.7,1.9,10,4.7,10,10.8s-4.3,9.5-11,9.5-9.6-2.8-10.6-3.7c-.4-.4-.7-.7-.2-1.4Z"/>
      </g>
    </g>
  </g>
</svg>