<?xml version="1.0" standalone="no"?>
<!DOCTYPE svg PUBLIC "-//W3C//DTD SVG 1.1//EN" "http://www.w3.org/Graphics/SVG/1.1/DTD/svg11.dtd">
<svg xmlns="http://www.w3.org/2000/svg" xmlns:xlink="http://www.w3.org/1999/xlink" version="1.1" id="Layer_1" x="0px" y="0px" viewBox="0 0 500 129.5" style="enable-background:new 0 0 500 129.5;" xml:space="preserve" width="500" height="129.5">
<style type="text/css">
	.st0{fill:#FFFFFF;}
	.st1{fill:#CD8629;}
</style>
<g>
	<path class="st0" d="M106.9,32.6h13.3v47.8c0,19.7,15.9,35.8,35.7,35.8s35.7-16.1,35.7-35.8V32.6h13.3v48.2   c0,27.1-21.9,48.7-48.9,48.7c-27.1,0-48.9-22-48.9-49.1V32.6z"/>
	<path class="st0" d="M262.8,31.4v13.3c-19.7,0.2-35.7,16.1-35.7,35.8v48.2h-13.3V80.4C213.9,53.4,235.8,31.5,262.8,31.4z"/>
	<path class="st0" d="M272.1,0h13.3v46.9c9-9.5,21.7-15.4,35.7-15.4c27.2,0,49.1,21.9,49.1,48.9c0,27.1-21.9,49.1-49.1,49.1   c-27.1,0-48.9-22-48.9-49.1V0z M285.4,80.4c0,19.7,15.9,35.8,35.7,35.8c19.9,0,35.8-16.1,35.8-35.8S340.9,44.8,321,44.8   C301.3,44.8,285.4,60.7,285.4,80.4z"/>
	<path class="st0" d="M392.7,40.3v88.3h-13.3V40.3H392.7z"/>
	<path class="st0" d="M500,80.4c0,27.1-21.9,49.1-48.9,49.1c-27.1,0-49.1-22-49.1-49.1c0-27.1,22-48.9,49.1-48.9   C478.1,31.5,500,53.4,500,80.4z M486.7,80.4c0-19.7-15.9-35.7-35.7-35.7c-19.7,0-35.8,15.9-35.8,35.7s16.1,35.8,35.8,35.8   C470.8,116.3,486.7,100.2,486.7,80.4z"/>
	<path class="st0" d="M80.7,97.1c-6,11.4-17.9,19.2-31.6,19.2c-19.7,0-35.8-16.1-35.8-35.8s16.1-35.7,35.8-35.7   c14.6,0,27.2,8.9,32.7,21.5H96c-6.1-20.1-24.8-34.8-46.9-34.8C22,31.5,0,53.4,0,80.4c0,27.1,22,49.1,49.1,49.1   c21.2,0,39.3-13.5,46.1-32.5H80.7z"/>
</g>
<g>
	<polygon class="st1" points="395,12.5 398.6,12.5 386.1,0 373.7,12.5 377.3,12.5 377.1,24.3 394.7,24.3  "/>
</g>
</svg>